<?xml version="1.0" encoding="utf-8"?>
<!-- Generator: Adobe Illustrator 25.2.3, SVG Export Plug-In . SVG Version: 6.00 Build 0)  -->
<svg version="1.1" id="Layer_1" xmlns="http://www.w3.org/2000/svg" xmlns:xlink="http://www.w3.org/1999/xlink" x="0px" y="0px"
	 viewBox="0 0 512 512" style="enable-background:new 0 0 512 512;" xml:space="preserve">
<style type="text/css">
	.st0{fill:#FFA0A0;}
</style>
<path class="st0" d="M350.4,298.3l73.6-71.8c5.6-5.4,2.5-14.9-5.2-16.1L317,195.6c-3.1-0.4-5.7-2.4-7.1-5.2l-45.5-92.2
	c-3.5-7-13.4-7-16.9,0L202,190.5c-1.4,2.8-4,4.7-7.1,5.2L93.2,210.4c-7.7,1.1-10.8,10.6-5.2,16.1l77.2,75.2c0,0,0,0,0,0l-18.2,106.2
	c-1.3,7.7,6.8,13.6,13.7,9.9l91-47.8c2.7-1.4,6-1.4,8.8,0l91,47.8c6.9,3.6,15-2.2,13.7-9.9l-17.4-101.3
	C347.2,303.5,348.2,300.4,350.4,298.3z"/>
</svg>
